<svg width="512" height="512" viewBox="0 0 512 512" fill="none" xmlns="http://www.w3.org/2000/svg">
  <rect width="512" height="512" rx="128" fill="#1e1e1e"/>
  <path d="M180 150H240V300C240 333.137 213.137 360 180 360C146.863 360 120 333.137 120 300H150C150 316.569 163.431 330 180 330C196.569 330 210 316.569 210 300V150H180Z" fill="#569cd6"/>
  <path d="M270 150H360C376.569 150 390 163.431 390 180V240C390 256.569 376.569 270 360 270H300V360H270V150ZM300 180V240H360C360 220 360 200 360 180H300Z" fill="#4ec9b0"/>
</svg>
